<svg width="16" height="16" viewBox="0 0 16 16" fill="none" xmlns="http://www.w3.org/2000/svg">
<path fill-rule="evenodd" clip-rule="evenodd" d="M0.25 8C0.25 3.71979 3.71979 0.25 8 0.25C12.2802 0.25 15.75 3.71979 15.75 8C15.75 12.2802 12.2802 15.75 8 15.75C3.71979 15.75 0.25 12.2802 0.25 8ZM1.75 8C1.75 11.4518 4.54822 14.25 8 14.25C11.4518 14.25 14.25 11.4518 14.25 8C14.25 4.54822 11.4518 1.75 8 1.75C4.54822 1.75 1.75 4.54822 1.75 8ZM11.0303 6.66967C10.7374 6.37678 10.2626 6.37678 9.96967 6.66967L8 8.63934L6.03033 6.66967C5.73744 6.37678 5.26256 6.37678 4.96967 6.66967C4.67678 6.96256 4.67678 7.43744 4.96967 7.73033L7.46967 10.2303C7.76256 10.5232 8.23744 10.5232 8.53033 10.2303L11.0303 7.73033C11.3232 7.43744 11.3232 6.96256 11.0303 6.66967Z" fill="#1F2D3D"/>
</svg>
