<svg width="16" height="16" viewBox="0 0 16 16" fill="none" xmlns="http://www.w3.org/2000/svg">
<path fill-rule="evenodd" clip-rule="evenodd" d="M15.75 8C15.75 12.2802 12.2802 15.75 8 15.75C3.71979 15.75 0.25 12.2802 0.25 8C0.25 3.71979 3.71979 0.25 8 0.25C12.2802 0.25 15.75 3.71979 15.75 8ZM14.25 8C14.25 4.54822 11.4518 1.75 8 1.75C4.54822 1.75 1.75 4.54822 1.75 8C1.75 11.4518 4.54822 14.25 8 14.25C11.4518 14.25 14.25 11.4518 14.25 8ZM4.96967 9.33033C5.26256 9.62322 5.73744 9.62322 6.03033 9.33033L8 7.36066L9.96967 9.33033C10.2626 9.62322 10.7374 9.62322 11.0303 9.33033C11.3232 9.03744 11.3232 8.56256 11.0303 8.26967L8.53033 5.76967C8.23744 5.47678 7.76256 5.47678 7.46967 5.76967L4.96967 8.26967C4.67678 8.56256 4.67678 9.03744 4.96967 9.33033Z" fill="#1F2D3D"/>
</svg>
