<svg width="60" height="60" viewBox="0 0 60 60" fill="none" xmlns="http://www.w3.org/2000/svg">
<path d="M30.0683 0H29.9317C13.4009 0 0 13.4009 0 29.9317V30.0683C0 46.5991 13.4009 60 29.9317 60H30.0683C46.5991 60 60 46.5991 60 30.0683V29.9317C60 13.4009 46.5991 0 30.0683 0Z" fill="url(#paint0_linear_106_81)"/>
<path d="M39.2839 12.2068H20.7182C15.5891 12.2068 11.4165 16.3794 11.4165 21.5085V38.4934C11.4165 43.6225 15.5891 47.7952 20.7182 47.7952H39.2839C44.413 47.7952 48.5856 43.6225 48.5856 38.4934V21.5085C48.5856 16.3794 44.413 12.2068 39.2839 12.2068ZM14.6978 21.5085C14.6978 18.1893 17.399 15.4882 20.7182 15.4882H39.2839C42.6031 15.4882 45.3043 18.1893 45.3043 21.5085V38.4934C45.3043 41.8126 42.6031 44.5138 39.2839 44.5138H20.7182C17.399 44.5138 14.6978 41.8126 14.6978 38.4934V21.5085Z" fill="white"/>
<path d="M30.0011 38.6511C34.7708 38.6511 38.6533 34.7706 38.6533 29.9989C38.6533 25.2271 34.7729 21.3467 30.0011 21.3467C25.2294 21.3467 21.3489 25.2271 21.3489 29.9989C21.3489 34.7706 25.2294 38.6511 30.0011 38.6511ZM30.0011 24.6301C32.963 24.6301 35.3719 27.0391 35.3719 30.001C35.3719 32.9628 32.963 35.3718 30.0011 35.3718C27.0393 35.3718 24.6303 32.9628 24.6303 30.001C24.6303 27.0391 27.0393 24.6301 30.0011 24.6301Z" fill="white"/>
<path d="M39.4542 22.7445C40.7386 22.7445 41.7854 21.6997 41.7854 20.4133C41.7854 19.1268 40.7407 18.082 39.4542 18.082C38.1677 18.082 37.123 19.1268 37.123 20.4133C37.123 21.6997 38.1677 22.7445 39.4542 22.7445Z" fill="white"/>
<defs>
<linearGradient id="paint0_linear_106_81" x1="8.76572" y1="51.2343" x2="51.2343" y2="8.76783" gradientUnits="userSpaceOnUse">
<stop stop-color="#FAAD4F"/>
<stop offset="0.35" stop-color="#DD2A7B"/>
<stop offset="0.62" stop-color="#9537B0"/>
<stop offset="1" stop-color="#515BD4"/>
</linearGradient>
</defs>
</svg>
