<svg width="60" height="60" viewBox="0 0 60 60" fill="none" xmlns="http://www.w3.org/2000/svg">
<g id="Telegram">
<path id="Oval" fill-rule="evenodd" clip-rule="evenodd" d="M30 60C46.5685 60 60 46.5685 60 30C60 13.4315 46.5685 0 30 0C13.4315 0 0 13.4315 0 30C0 46.5685 13.4315 60 30 60Z" fill="url(#paint0_linear_106_2)"/>
<path id="Shape" fill-rule="evenodd" clip-rule="evenodd" d="M24.5 43.75C23.5281 43.75 23.6933 43.383 23.3581 42.4576L20.5 33.0515L42.5 20" fill="#C8DAEA"/>
<path id="Shape_2" fill-rule="evenodd" clip-rule="evenodd" d="M24.5 43.7501C25.25 43.7501 25.5814 43.4071 26 43.0001L30 39.1106L25.0105 36.1018" fill="#A9C9DD"/>
<path id="Shape_3" fill-rule="evenodd" clip-rule="evenodd" d="M25.01 36.1026L37.1 45.0349C38.4796 45.7961 39.4753 45.402 39.819 43.754L44.7402 20.5632C45.2441 18.5432 43.9702 17.627 42.6504 18.2262L13.7529 29.3689C11.7804 30.1601 11.7919 31.2606 13.3933 31.7509L20.8091 34.0655L37.9773 23.2343C38.7878 22.7428 39.5317 23.007 38.9211 23.5489" fill="url(#paint1_linear_106_2)"/>
</g>
<defs>
<linearGradient id="paint0_linear_106_2" x1="22.503" y1="2.502" x2="7.503" y2="37.5" gradientUnits="userSpaceOnUse">
<stop stop-color="#37AEE2"/>
<stop offset="1" stop-color="#1E96C8"/>
</linearGradient>
<linearGradient id="paint1_linear_106_2" x1="26.2445" y1="31.8429" x2="29.4499" y2="42.2116" gradientUnits="userSpaceOnUse">
<stop stop-color="#EFF7FC"/>
<stop offset="1" stop-color="white"/>
</linearGradient>
</defs>
</svg>
